<svg width="21" height="20" viewBox="0 0 21 20" fill="none" xmlns="http://www.w3.org/2000/svg">
<path fill-rule="evenodd" clip-rule="evenodd" d="M12.9325 2.5C13.0458 3.25958 12.7346 4.00292 12.3241 4.52917C11.8846 5.09333 11.1275 5.53 10.3962 5.50708C10.2629 4.78 10.6058 4.03208 11.0212 3.52792C11.4791 2.97208 12.2625 2.54583 12.9325 2.5ZM15.0154 13.6946C15.3937 13.1196 15.5341 12.8296 15.8279 12.1788C13.6954 11.3725 13.3525 8.35875 15.4633 7.20167C14.8187 6.39875 13.9146 5.93417 13.0612 5.93417C12.4452 5.93417 12.0232 6.09379 11.6397 6.23886C11.3203 6.35969 11.0276 6.47042 10.6716 6.47042C10.287 6.47042 9.94629 6.34896 9.58938 6.22173C9.19695 6.08185 8.78499 5.935 8.27373 5.935C7.31456 5.935 6.29456 6.51709 5.64789 7.51292C4.73831 8.91334 4.89248 11.5483 6.36748 13.7933C6.89498 14.5967 7.59914 15.4996 8.52081 15.5079C8.90246 15.5116 9.15655 15.3984 9.43163 15.2759C9.74666 15.1355 10.0892 14.9829 10.6825 14.9796C11.2794 14.9762 11.6164 15.1305 11.9274 15.2728C12.1953 15.3955 12.4439 15.5093 12.8229 15.5058C13.7446 15.4975 14.4883 14.4975 15.0154 13.6946Z" fill="black"/>
</svg>
