<svg width="20" height="20" viewBox="0 0 20 20" fill="none" xmlns="http://www.w3.org/2000/svg">
<path fill-rule="evenodd" clip-rule="evenodd" d="M16 10.1421C16 9.69891 15.9602 9.27277 15.8864 8.86368H10V11.2813H13.3636C13.2188 12.0625 12.7784 12.7245 12.1165 13.1677V14.7358H14.1364C15.3182 13.6478 16 12.0455 16 10.1421Z" fill="#4285F4"/>
<path fill-rule="evenodd" clip-rule="evenodd" d="M10 16.25C11.6875 16.25 13.1023 15.6903 14.1364 14.7358L12.1165 13.1676C11.5569 13.5426 10.8409 13.7642 10 13.7642C8.37219 13.7642 6.99434 12.6648 6.50287 11.1875H4.41479V12.8068C5.44321 14.8494 7.55685 16.25 10 16.25Z" fill="#34A853"/>
<path fill-rule="evenodd" clip-rule="evenodd" d="M6.50284 11.1876C6.37784 10.8126 6.30682 10.412 6.30682 10.0001C6.30682 9.58813 6.37784 9.18756 6.50284 8.81256V7.19324H4.41477C3.99148 8.03699 3.75 8.99154 3.75 10.0001C3.75 11.0086 3.99148 11.9631 4.41477 12.8069L6.50284 11.1876Z" fill="#FBBC05"/>
<path fill-rule="evenodd" clip-rule="evenodd" d="M10 6.23583C10.9176 6.23583 11.7415 6.55117 12.3892 7.17049L14.1819 5.37787C13.0995 4.36935 11.6847 3.75003 10 3.75003C7.55684 3.75003 5.44321 5.1506 4.41479 7.19322L6.50287 8.81254C6.99434 7.33526 8.37219 6.23583 10 6.23583Z" fill="#EA4335"/>
</svg>
